<?xml version="1.0" encoding="UTF-8" standalone="no"?>
<!-- Created with Inkscape (http://www.inkscape.org/) -->

<svg
   xmlns:dc="http://purl.org/dc/elements/1.1/"
   xmlns:cc="http://creativecommons.org/ns#"
   xmlns:rdf="http://www.w3.org/1999/02/22-rdf-syntax-ns#"
   xmlns:svg="http://www.w3.org/2000/svg"
   xmlns="http://www.w3.org/2000/svg"
   xmlns:sodipodi="http://sodipodi.sourceforge.net/DTD/sodipodi-0.dtd"
   xmlns:inkscape="http://www.inkscape.org/namespaces/inkscape"
   version="1.2"
   width="340.77863"
   height="90.981049"
   id="svg3588"
   inkscape:version="0.48.2 r9819"
   sodipodi:docname="buildingof-logo.svg">
  <sodipodi:namedview
     pagecolor="#ffffff"
     bordercolor="#666666"
     borderopacity="1"
     objecttolerance="10"
     gridtolerance="10"
     guidetolerance="10"
     inkscape:pageopacity="0"
     inkscape:pageshadow="2"
     inkscape:window-width="1920"
     inkscape:window-height="1018"
     id="namedview14"
     showgrid="false"
     showborder="true"
     inkscape:zoom="3.1349852"
     inkscape:cx="120.62831"
     inkscape:cy="45.490524"
     inkscape:window-x="1358"
     inkscape:window-y="-8"
     inkscape:window-maximized="1"
     inkscape:current-layer="layer1" />
  <defs
     id="defs3590" />
  <metadata
     id="metadata3593">
    <rdf:RDF>
      <cc:Work
         rdf:about="">
        <dc:format>image/svg+xml</dc:format>
        <dc:type
           rdf:resource="http://purl.org/dc/dcmitype/StillImage" />
        <dc:title></dc:title>
      </cc:Work>
    </rdf:RDF>
  </metadata>
  <g
     transform="translate(-66.422218,-258.64794)"
     id="layer1">
    <g
       transform="translate(649.74839,414.96906)"
       style="font-size:60px;font-style:normal;font-weight:normal;line-height:125%;letter-spacing:-5px;word-spacing:0px;fill:#37abc8;fill-opacity:1;stroke:none;font-family:Sans"
       id="flowRoot16132">
      <path
         d="m -578.27246,-90.206796 0,-30.249024 -5.05371,0 0,-1.24512 16.91894,0 c 1.85545,4e-5 3.41795,0.0936 4.6875,0.28077 1.26951,0.1872 2.49021,0.67141 3.66211,1.45263 1.17185,0.78128 2.01413,1.74564 2.52686,2.89307 0.51266,1.14749 0.76901,2.23391 0.76904,3.25928 -3e-5,3.88999 -2.98668,6.43719 -8.95996,7.6416 l 0,0.12207 c 6.73825,1.09051 10.10739,3.88998 10.10742,8.398435 -3e-5,1.106778 -0.30114,2.274583 -0.90332,3.503418 -0.60224,1.228845 -1.56253,2.290856 -2.88086,3.186035 -1.31838,0.895183 -2.66522,1.452637 -4.04052,1.672363 -1.37535,0.219727 -3.10468,0.32959 -5.18799,0.32959 l -16.69922,0 0,-1.245117 z m 10.81543,-30.249024 -5.00488,0 0,13.74512 4.49218,0 c 3.0436,2e-5 4.98859,-0.59406 5.83496,-1.78223 0.84633,-1.18813 1.26951,-3.05987 1.26954,-5.61523 -3e-5,-2.00193 -0.27672,-3.45863 -0.83008,-4.37012 -0.55341,-0.91143 -1.25735,-1.46888 -2.11182,-1.67236 -0.85451,-0.20342 -2.07115,-0.30515 -3.6499,-0.30518 z m -0.56152,14.99023 -4.44336,0 0,15.258794 4.58984,0 c 1.70896,10e-7 3.07208,-0.130207 4.08936,-0.390625 1.01722,-0.260415 1.88392,-0.956215 2.60009,-2.087402 0.71612,-1.13118 1.0742,-2.909336 1.07422,-5.334473 -2e-5,-2.587874 -0.5412,-4.475894 -1.62353,-5.664064 -1.08238,-1.18813 -3.17792,-1.78221 -6.28662,-1.78223 z"
         style="font-size:50px;font-variant:normal;font-stretch:normal;letter-spacing:0px;fill:#37abc8;font-family:Bodoni MT;-inkscape-font-specification:Bodoni MT"
         id="path3767" />
      <path
         d="m -520.85059,-120.45582 -5.34668,0 0,-1.24512 11.69434,0 0,1.24512 -5.15137,0 0,19.79981 c -3e-5,2.864587 -0.21569,4.980471 -0.64697,6.347651 -0.43134,1.367192 -1.21666,2.514652 -2.35596,3.442383 -1.13935,0.927736 -2.50246,1.603191 -4.08935,2.026367 -1.58694,0.423177 -3.22675,0.634765 -4.91944,0.634766 -3.58074,-10e-7 -6.20118,-0.561524 -7.86132,-1.68457 -1.66017,-1.123045 -2.68149,-2.506507 -3.06397,-4.150391 -0.38249,-1.643873 -0.57374,-3.849275 -0.57373,-6.616206 l 0,-19.79981 -4.73633,0 0,-1.24512 15.64942,0 0,1.24512 -5.15137,0 0,19.23828 c -10e-6,2.653006 0.12206,4.736337 0.36621,6.250002 0.24413,1.513676 0.90331,2.775068 1.97754,3.784179 1.0742,1.009116 2.77505,1.513673 5.10254,1.513672 1.888,10e-7 3.5807,-0.386555 5.07812,-1.159668 1.49737,-0.773109 2.54311,-1.810706 3.13721,-3.112793 0.59405,-1.302077 0.89108,-3.727204 0.89111,-7.275392 z"
         style="font-size:50px;font-variant:normal;font-stretch:normal;letter-spacing:0px;fill:#37abc8;font-family:Bodoni MT;-inkscape-font-specification:Bodoni MT"
         id="path3769" />
      <path
         d="m -505.03027,-90.206796 0,-30.249024 -5.34668,0 0,-1.24512 16.55273,0 0,1.24512 -5.39551,0 0,30.249024 5.39551,0 0,1.245117 -16.55273,0 0,-1.245117 z"
         style="font-size:50px;font-variant:normal;font-stretch:normal;letter-spacing:0px;fill:#37abc8;font-family:Bodoni MT;-inkscape-font-specification:Bodoni MT"
         id="path3771" />
      <path
         d="m -477.97949,-120.45582 0,30.249024 7.34863,0 c 1.41599,10e-7 2.5309,-0.105793 3.34473,-0.317383 0.81377,-0.211587 1.61537,-0.724281 2.40478,-1.538086 0.78936,-0.813798 1.39971,-1.782221 1.83106,-2.905273 0.43128,-1.12304 0.89108,-2.685538 1.37939,-4.6875 l 1.14746,0 -0.90332,10.693359 -27.51465,0 0,-1.245117 5.15137,0 0,-30.249024 -5.15137,0 0,-1.24512 16.40625,0 0,1.24512 z"
         style="font-size:50px;font-variant:normal;font-stretch:normal;letter-spacing:0px;fill:#37abc8;font-family:Bodoni MT;-inkscape-font-specification:Bodoni MT"
         id="path3773" />
      <path
         d="m -451.70996,-90.206796 0,-30.249024 -5.10254,0 0,-1.24512 15.4541,0 c 3.41795,4e-5 6.34356,0.48425 8.77686,1.45264 2.43324,0.96845 4.46367,2.86461 6.09131,5.68848 1.62757,2.82391 2.44137,5.88787 2.4414,9.19189 -3e-5,3.49936 -0.89521,6.62436 -2.68554,9.375001 -1.7904,2.750655 -3.85339,4.610191 -6.18897,5.578613 -2.33564,0.968425 -5.17987,1.452637 -8.53271,1.452637 l -15.35645,0 0,-1.245117 z m 5.81055,-30.249024 0,30.249024 4.24804,0 c 2.2298,10e-7 4.04865,-0.203449 5.45655,-0.610352 1.40785,-0.406898 2.57158,-1.293942 3.49121,-2.661132 0.91957,-1.367182 1.54212,-3.100579 1.86767,-5.200196 0.32549,-2.099594 0.48826,-4.842104 0.48828,-8.227534 -2e-5,-4.06899 -0.51679,-7.10447 -1.55029,-9.10645 -1.03355,-2.00192 -2.29901,-3.24297 -3.79639,-3.72314 -1.49741,-0.48012 -3.45054,-0.72019 -5.85937,-0.72022 z"
         style="font-size:50px;font-variant:normal;font-stretch:normal;letter-spacing:0px;fill:#37abc8;font-family:Bodoni MT;-inkscape-font-specification:Bodoni MT"
         id="path3775" />
      <path
         d="m -413.33105,-90.206796 0,-30.249024 -5.34668,0 0,-1.24512 16.55273,0 0,1.24512 -5.39551,0 0,30.249024 5.39551,0 0,1.245117 -16.55273,0 0,-1.245117 z"
         style="font-size:50px;font-variant:normal;font-stretch:normal;letter-spacing:0px;fill:#37abc8;font-family:Bodoni MT;-inkscape-font-specification:Bodoni MT"
         id="path3777" />
      <path
         d="m -368.58008,-120.45582 0,32.250977 -1.00097,0 -21.55762,-32.397457 -0.0977,0 0,30.395504 5.54199,0 0,1.245117 -11.6455,0 0,-1.245117 4.85839,0 0,-30.249024 -5.20019,0 0,-1.24512 12.5,0 15.25879,22.949222 0.0976,0 0,-21.704102 -5.41992,0 0,-1.24512 11.6211,0 0,1.24512 z"
         style="font-size:50px;font-variant:normal;font-stretch:normal;letter-spacing:0px;fill:#37abc8;font-family:Bodoni MT;-inkscape-font-specification:Bodoni MT"
         id="path3779" />
      <path
         d="m -338.59961,-99.923593 -5.54199,0 0,-1.245117 16.94336,0 0,1.245117 -4.73633,0 c -3e-5,4.18295 -1.3428,7.181807 -4.02832,8.996582 -2.68557,1.814779 -5.49318,2.722167 -8.42285,2.722168 -4.28061,-10e-7 -7.84506,-1.708983 -10.69336,-5.126953 -2.84831,-3.417961 -4.27246,-7.413724 -4.27246,-11.987304 0,-4.63865 1.4567,-8.65476 4.37011,-12.04834 2.91341,-3.39352 6.54296,-5.0903 10.88868,-5.09033 2.24607,3e-5 4.39451,0.65107 6.44531,1.95312 0.61846,0.39066 1.04978,0.58597 1.29394,0.58594 0.52081,3e-5 1.04164,-0.46384 1.5625,-1.3916 l 1.09864,0 0.34179,8.88672 -1.24511,0 c -1.35094,-5.85935 -4.54918,-8.78903 -9.59473,-8.78907 -2.62046,4e-5 -4.53289,0.59004 -5.7373,1.77002 -1.20444,1.18005 -1.94093,2.6693 -2.20948,4.46778 -0.26856,1.79852 -0.40284,4.36607 -0.40283,7.70263 -1e-5,6.00588 0.19937,9.985364 0.59815,11.938481 0.39875,1.953129 1.21662,3.422041 2.45361,4.406738 1.23696,0.984702 2.75063,1.477051 4.54101,1.477051 1.43228,0 2.70588,-0.292968 3.82081,-0.878906 1.11488,-0.585936 1.81475,-1.460772 2.0996,-2.624512 0.28481,-1.163732 0.42723,-2.901198 0.42725,-5.212402 z"
         style="font-size:50px;font-variant:normal;font-stretch:normal;letter-spacing:0px;fill:#37abc8;font-family:Bodoni MT;-inkscape-font-specification:Bodoni MT"
         id="path3781" />
    </g>
    <g
       transform="matrix(2.2575616,-0.63495853,0.63495853,2.2575616,1711.704,187.07099)"
       style="font-size:40px;font-style:normal;font-weight:normal;line-height:125%;letter-spacing:0px;word-spacing:0px;fill:#37abc8;fill-opacity:1;stroke:none;font-family:Sans"
       id="flowRoot16140">
      <path
         d="m -575.875,-105.88243 0.13672,0.13672 c -0.48178,0.45573 -0.97657,0.6836 -1.48438,0.6836 -0.41667,0 -0.76823,-0.14974 -1.05468,-0.44922 -0.96355,1.01562 -1.9922,1.86849 -3.08594,2.55859 -1.09375,0.6901 -2.00521,1.03516 -2.73438,1.03516 -0.3776,0 -0.69661,-0.13672 -0.95703,-0.41016 -0.26041,-0.27344 -0.39062,-0.65104 -0.39062,-1.13281 0,-1.10677 0.49479,-2.17122 1.48437,-3.19336 0.98958,-1.02213 2.12565,-1.8164 3.40821,-2.38281 1.28254,-0.5664 2.30142,-0.84961 3.05664,-0.84961 0.74217,0 1.11327,0.35157 1.11328,1.05468 -1e-5,0.72918 -0.58595,1.77735 -1.75781,3.14454 0.23436,0.28646 0.54686,0.42969 0.9375,0.42968 0.44269,1e-5 0.8854,-0.20833 1.32812,-0.625 z m -0.68359,-3.00781 c -10e-6,-0.24739 -0.0944,-0.44921 -0.28321,-0.60547 -0.18881,-0.15624 -0.4004,-0.23437 -0.63476,-0.23437 -0.98959,0 -2.48373,0.98959 -4.48242,2.96875 -1.9987,1.97917 -2.99805,3.28776 -2.99805,3.92578 0,0.18229 0.0911,0.34831 0.27344,0.49804 0.18229,0.14974 0.39062,0.22461 0.625,0.22461 0.54687,0 1.33137,-0.2832 2.35351,-0.84961 1.02213,-0.5664 1.92057,-1.2565 2.69531,-2.07031 0.77474,-0.8138 1.37695,-1.54296 1.80665,-2.1875 0.42967,-0.64452 0.64452,-1.20116 0.64453,-1.66992 z"
         style="font-variant:normal;font-stretch:normal;fill:#37abc8;font-family:Kunstler Script;-inkscape-font-specification:Kunstler Script"
         id="path3762" />
      <path
         d="m -575.71875,-105.74571 -0.13672,-0.13672 c 0.6901,-0.59895 1.56901,-1.26301 2.63672,-1.99218 0.26041,-0.67708 0.55664,-1.22396 0.88867,-1.64063 0.33203,-0.41666 0.58919,-0.62499 0.77149,-0.625 0.15624,1e-5 0.23437,0.0846 0.23437,0.25391 0,0.16928 -0.20183,0.55339 -0.60547,1.15234 l 3.4961,-2.22656 c 0.22134,-0.14322 0.62499,-0.50781 1.21093,-1.09375 2.57812,-2.60416 4.56705,-4.52798 5.9668,-5.77149 1.39972,-1.24347 2.77016,-2.36326 4.11133,-3.35937 1.34112,-0.99608 2.31117,-1.62758 2.91016,-1.89453 0.59893,-0.26691 1.08721,-0.40037 1.46484,-0.40039 0.27341,2e-5 0.51104,0.0814 0.71289,0.24414 0.2018,0.16278 0.30271,0.36135 0.30273,0.5957 -2e-5,0.79429 -0.60223,1.83921 -1.80664,3.13477 -1.20445,1.29559 -3.14129,2.75066 -5.81054,4.36523 -2.66929,1.6146 -4.94142,2.72788 -6.81641,3.33984 l -6.07422,6.66016 c 0.4427,0.37761 0.97656,0.56641 1.60156,0.56641 0.82031,0 1.73177,-0.4362 2.73438,-1.3086 l 0.13672,0.13672 c -1.06772,0.9375 -2.03126,1.40625 -2.89063,1.40625 -0.67709,0 -1.26302,-0.19531 -1.75781,-0.58594 l -11.38672,12.167973 -1.91406,0.01953 5.82031,-6.113281 c 1.65365,-1.744793 3.16732,-3.606773 4.54102,-5.585933 1.37369,-1.97917 2.06054,-3.02083 2.06054,-3.125 -0.59896,0.39063 -0.9668,0.63477 -1.10351,0.73242 -0.13672,0.0977 -0.25066,0.18555 -0.3418,0.26367 z m 23.69141,-16.91406 c -3e-5,-0.15623 -0.0782,-0.29295 -0.23438,-0.41016 -0.15627,-0.11716 -0.34508,-0.17576 -0.5664,-0.17578 -0.37763,2e-5 -0.92776,0.1758 -1.6504,0.52735 -0.72267,0.35158 -1.63739,0.98309 -2.74414,1.89453 -1.10679,0.91147 -2.81902,2.56837 -5.13671,4.9707 -2.31773,2.40235 -3.47658,3.6491 -3.47657,3.74023 -10e-6,0.0651 1.10351,-0.44269 3.31055,-1.52343 2.20701,-1.08072 4.1699,-2.27538 5.88867,-3.58399 1.71873,-1.30857 2.91664,-2.43488 3.59375,-3.3789 0.67706,-0.94399 1.0156,-1.63084 1.01563,-2.06055 z m -20.9961,14.96094 c -0.14323,0.35156 -0.21485,0.65104 -0.21484,0.89843 -10e-6,0.23438 0.0716,0.50131 0.21484,0.80079 l 4.16016,-4.31641 -0.0586,-0.0781 z m -0.19531,1.89453 c -0.0651,-0.15625 -0.11068,-0.27344 -0.13672,-0.35156 l -0.13672,-0.64454 c -0.5599,1.02865 -1.60807,2.51954 -3.14453,4.47266 l 0.0977,0.0586 z"
         style="font-variant:normal;font-stretch:normal;fill:#37abc8;font-family:Kunstler Script;-inkscape-font-specification:Kunstler Script"
         id="path3764" />
    </g>
  </g>
</svg>
